<?xml version="1.0" encoding="UTF-8" standalone="no"?>
<!-- Created with Inkscape (http://www.inkscape.org/) -->

<svg
   width="55.954048mm"
   height="24.164291mm"
   viewBox="0 0 55.954048 24.164291"
   version="1.1"
   id="svg3628"
   inkscape:version="1.2.2 (732a01da63, 2022-12-09)"
   sodipodi:docname="qodr_logo-only_bw.svg"
   xmlns:inkscape="http://www.inkscape.org/namespaces/inkscape"
   xmlns:sodipodi="http://sodipodi.sourceforge.net/DTD/sodipodi-0.dtd"
   xmlns="http://www.w3.org/2000/svg"
   xmlns:svg="http://www.w3.org/2000/svg">
  <sodipodi:namedview
     id="namedview3630"
     pagecolor="#ffffff"
     bordercolor="#999999"
     borderopacity="1"
     inkscape:showpageshadow="0"
     inkscape:pageopacity="0"
     inkscape:pagecheckerboard="0"
     inkscape:deskcolor="#d1d1d1"
     inkscape:document-units="mm"
     showgrid="false"
     inkscape:zoom="0.67526655"
     inkscape:cx="781.173"
     inkscape:cy="-13.32807"
     inkscape:window-width="1920"
     inkscape:window-height="1013"
     inkscape:window-x="-9"
     inkscape:window-y="-9"
     inkscape:window-maximized="1"
     inkscape:current-layer="layer1" />
  <defs
     id="defs3625" />
  <g
     inkscape:label="Layer 1"
     inkscape:groupmode="layer"
     id="layer1"
     transform="translate(101.63931,-152.09049)">
    <path
       id="path961"
       style="fill:#ffffff;fill-opacity:1;stroke:none;stroke-width:0.799949;stroke-linejoin:round;stroke-dasharray:none"
       d="m -93.578193,152.09089 c -0.718039,0.04 -1.37655,0.41183 -1.781758,1.00591 l -6.029169,10.00201 c -0.33226,0.62986 -0.33358,1.38283 -0.004,2.01388 l 3.221494,5.38471 c 0.04693,-0.17125 0.110366,-0.33896 0.193623,-0.49947 0.102058,-0.19436 0.237677,-0.37954 0.344791,-0.57347 3.44878,-5.71724 6.406681,-10.59983 9.860365,-16.31407 0.334527,-0.57542 0.07541,-1.00896 -0.565549,-1.0101 z m 39.831828,0 -5.240218,0.009 c -0.640955,0.001 -0.900076,0.43468 -0.565548,1.0101 3.453683,5.71424 6.411635,10.59683 9.860415,16.31407 0.107114,0.19393 0.242733,0.37911 0.344817,0.57347 0.08323,0.16051 0.146671,0.32822 0.193572,0.49947 l 3.221519,-5.38471 c 0.329979,-0.63105 0.328658,-1.38402 -0.0036,-2.01388 l -6.029166,-10.00201 c -0.405208,-0.59408 -1.06377,-0.96587 -1.781758,-1.00591 z m -21.041917,0.0449 -0.342455,0.006 h -4.476142 a 2.3126678,2.3126678 0 0 0 -0.07922,0.01 l -0.278912,5.8e-4 v 0.0419 a 2.3126678,2.3126678 0 0 0 -1.42185,0.95698 l -6.011203,10.01289 a 2.1654193,2.1654193 0 0 0 0,2.01386 l 1.860188,3.09653 v 2e-5 l 0.291209,0.48484 c 0.195097,0.45536 -0.0069,0.81954 -0.530792,0.85713 l -4.174797,-0.0148 c -0.670655,-0.006 -1.290142,-0.30837 -1.693571,-0.83642 -0.651093,-1.07763 -1.302236,-2.15527 -1.953328,-3.2329 l -0.001,-4.5e-4 c -1.056631,1.77097 -2.113338,3.54199 -3.169994,5.31296 -0.119995,0.20991 -0.193572,0.44352 -0.233333,0.68056 -0.0684,0.41621 -0.0086,0.85947 0.167149,1.24238 0.0873,0.1444 0.18877,0.31166 0.28219,0.46585 l -0.0045,0.003 1.174238,1.95557 a 2.3126678,2.3126678 0 0 0 0.415676,0.45025 c 0.02132,0.0184 0.04266,0.0367 0.06458,0.0543 a 2.3126678,2.3126678 0 0 0 0.204497,0.1468 c 0.06598,0.042 0.134121,0.0805 0.203989,0.11564 a 2.3126678,2.3126678 0 0 0 0.131529,0.0615 c 0.102515,0.0438 0.208308,0.0805 0.316794,0.10936 a 2.3126678,2.3126678 0 0 0 0.04703,0.0118 c 0.136713,0.0333 0.27721,0.0546 0.420122,0.0626 l 1.977718,-0.003 h 3.238364 c 0.0346,0 0.06786,-10e-4 0.10005,-0.004 l 8.630487,0.004 a 2.3126678,2.3126678 0 0 0 0.02647,0.003 h 5.240269 c 0.06014,0 0.116387,-0.004 0.169055,-0.0116 l 1.080919,-10e-4 c 0.0547,0.008 0.113288,0.0128 0.176093,0.0128 h 1.922509 c 5.09e-4,2e-5 7.63e-4,0 0.0013,0 h 0.09271 3.223882 a 2.3126678,2.3126678 0 0 0 1.780005,-1.00908 l 2.29098,-3.81549 a 2.1654193,2.1654193 0 0 0 0.01446,-0.0328 l 0.326169,-0.5428 1.519512,-2.52956 v -3e-5 l 1.860035,-3.09652 a 2.1654193,2.1654193 0 0 0 0,-2.01386 l -6.011152,-10.0129 a 2.3126678,2.3126678 0 0 0 -1.780005,-1.00907 H -67.8014 v -0.006 l -4.372535,0.006 -0.335594,-0.006 a 2.1654193,2.1654193 0 0 0 -0.03788,0.006 h -0.393242 c -0.0074,0 -0.01403,7.6e-4 -0.02129,9.1e-4 l -1.342403,0.002 c -0.02073,-9.7e-4 -0.04075,-0.003 -0.0623,-0.003 h -0.383917 a 2.1654193,2.1654193 0 0 0 -0.03786,-0.006 v 0 z m 1.139532,6.48411 2.823932,0.049 a 2.1654193,2.1654193 0 0 1 1.048069,0.69175 l 0.01077,0.0179 c 0.01115,0.0179 0.02566,0.0334 0.03956,0.0484 a 2.1654193,2.1654193 0 0 1 0.05046,0.0699 l 1.650228,2.74681 0.53341,0.92867 0.127261,0.2946 a 2.1654193,2.1654193 0 0 1 -0.127261,1.71491 l -2.274517,3.78644 a 2.1654193,2.1654193 0 0 1 -1.048399,0.69911 l -2.927896,0.0507 -2.927972,-0.0507 a 2.1654193,2.1654193 0 0 1 -0.639863,-0.31745 l -2.503811,-4.1681 a 2.1654193,2.1654193 0 0 1 -0.117378,-1.7378 l 0.117378,-0.27171 0.533435,-0.92867 1.603684,-2.66941 a 2.1654193,2.1654193 0 0 1 1.204725,-0.9054 z m 19.853071,6.99816 -10e-4,4.6e-4 c -1.765523,2.96066 -3.531047,5.92135 -5.29657,8.88202 v 0 l -0.511458,0.86035 c -0.231783,0.49902 0.0037,0.89644 0.610086,0.89388 l 5.240294,-0.0221 c 0.717734,-0.0444 1.374009,-0.42009 1.775661,-1.0166 0.470909,-0.79746 1.004319,-1.68417 1.443063,-2.41987 0.172688,-0.38184 0.229497,-0.82305 0.159096,-1.2366 -0.04091,-0.23551 -0.115447,-0.46744 -0.235976,-0.67551 -1.061128,-1.75526 -2.12223,-3.51055 -3.183358,-5.26581 z" />
  </g>
</svg>
