<?xml version="1.0" encoding="UTF-8" standalone="no"?>
<!-- Created with Inkscape (http://www.inkscape.org/) -->

<svg
   width="91.410088mm"
   height="13.913881mm"
   viewBox="0 0 91.410088 13.913881"
   version="1.1"
   id="svg1361"
   inkscape:version="1.2.2 (732a01da63, 2022-12-09)"
   sodipodi:docname="logo+wordmark-qodr_outline_2023-05.svg"
   xmlns:inkscape="http://www.inkscape.org/namespaces/inkscape"
   xmlns:sodipodi="http://sodipodi.sourceforge.net/DTD/sodipodi-0.dtd"
   xmlns="http://www.w3.org/2000/svg"
   xmlns:svg="http://www.w3.org/2000/svg">
  <sodipodi:namedview
     id="namedview1363"
     pagecolor="#ffffff"
     bordercolor="#999999"
     borderopacity="1"
     inkscape:showpageshadow="0"
     inkscape:pageopacity="0"
     inkscape:pagecheckerboard="0"
     inkscape:deskcolor="#d1d1d1"
     inkscape:document-units="mm"
     showgrid="false"
     inkscape:zoom="0.67526655"
     inkscape:cx="905.56832"
     inkscape:cy="441.30721"
     inkscape:window-width="1920"
     inkscape:window-height="1013"
     inkscape:window-x="-9"
     inkscape:window-y="-9"
     inkscape:window-maximized="1"
     inkscape:current-layer="layer1" />
  <defs
     id="defs1358" />
  <g
     inkscape:label="Layer 1"
     inkscape:groupmode="layer"
     id="layer1"
     transform="translate(134.2565,-31.833296)">
    <g
       id="g1341"
       transform="matrix(0.0254065,0,0,0.0254065,-90.971864,32.568408)">
      <path
         id="path455"
         style="color:#000000;-inkscape-font-specification:'Panchang Ultra-Bold';fill:#ffffff;-inkscape-stroke:none"
         d="m -46.915001,-28.933998 c -39.023518,2.36e-4 -75.476819,7.026806 -109.163959,21.0924213 h -0.0203 c -33.63008,13.555618 -63.34564,32.9522247 -88.96649,58.0702637 -25.13119,24.628504 -45.00853,53.582393 -59.55507,86.688423 v 0.0203 l -0.0203,0.0203 c -14.10596,32.74592 -21.1331,68.26308 -21.1331,106.35706 0,38.094 7.04122,73.8524 21.1331,107.06896 l 0.0203,0.061 0.0203,0.061 c 14.54505,32.60108 34.40539,61.51839 59.49405,86.60707 l 0.0407,0.0407 0.061,0.0407 c 25.60754,24.60332 55.26206,43.95445 88.84445,57.9889 l 0.0407,0.0203 0.0407,0.0203 c 33.69207,13.57738 70.137921,20.33985 109.163959,20.33985 18.851345,0 37.0456622,-1.73884 54.6735091,-4.90191 6.0755179,2.60237 12.4809829,4.51286 19.2414949,4.90191 h 0.183059 115.855768 c 8.56387,0 16.29944,-3.09844 20.07543,-9.68177 3.776,-6.58333 2.58325,-14.89225 -1.83059,-22.51621 l -0.0203,-0.0407 -21.49921,-35.77779 c 3.88724,-3.38856 7.77849,-6.77433 11.47167,-10.39366 25.60896,-25.10689 45.50654,-54.0693 59.57541,-86.72911 l 0.0203,-0.0203 v -0.0203 c 14.09188,-33.21656 21.1331,-68.97496 21.1331,-107.06896 0,-38.08118 -7.03662,-73.59994 -21.1331,-106.33672 C 196.77004,103.83836 176.86279,74.862741 151.23579,50.228687 126.0958,25.10158 96.382033,5.7254473 62.289638,-7.8212368 28.59262,-21.89674 -7.8778839,-28.933762 -46.915001,-28.933998 Z m 598.235581,0.02034 c -39.0218,0 -75.49438,6.985016 -109.1843,21.0517415 l -0.0203,0.02034 C 408.48443,5.7146073 378.77026,25.110157 353.14945,50.228687 328.0194,74.856363 308.14078,103.79102 293.59438,136.89677 v 0.0203 l -0.0203,0.0203 c -14.10587,32.7457 -21.1331,68.2835 -21.1331,106.3774 0,38.09398 7.04137,73.85278 21.1331,107.06896 l 0.0203,0.061 0.0203,0.061 c 14.54469,32.60032 34.40471,61.51766 59.49405,86.60707 l 0.0407,0.0407 0.061,0.061 c 25.60839,24.60413 55.284,43.93476 88.86479,57.96856 l 0.0203,0.0203 0.0407,0.0203 c 33.69178,13.57725 70.15802,20.33985 109.1843,20.33985 39.02629,0 75.45272,-6.76296 109.14362,-20.33985 l 0.0407,-0.0203 h 0.0203 c 34.08397,-14.03464 63.79708,-33.40392 88.94615,-58.04992 25.60969,-25.10761 45.50686,-54.07004 59.57541,-86.72911 v -0.0203 -0.0203 c 14.09171,-33.21618 21.1331,-68.97497 21.1331,-107.06896 0,-38.0811 -7.03673,-73.60016 -21.1331,-106.33672 C 794.98061,103.82527 775.07202,74.827876 749.43069,50.188007 724.29777,25.07653 694.58355,5.6996978 660.50488,-7.8415767 626.806,-21.917825 590.35608,-28.913658 551.32058,-28.913658 Z m 339.22797,8.074919 v 6.61045 521.696739 H 1095.086 c 39.48,0 76.1519,-6.5162 109.8352,-19.58728 l 0.041,-0.0203 h 0.041 c 33.5712,-13.52879 63.0111,-32.1387 88.1529,-55.77186 25.6289,-24.12126 45.5486,-52.10271 59.6364,-83.80017 14.1312,-31.79525 21.1738,-66.62737 21.1738,-104.24171 0,-37.15637 -7.3142,-71.98354 -21.9264,-104.24172 -14.0689,-32.14009 -33.7135,-60.367186 -58.8431,-84.491722 -25.1544,-24.148163 -54.6392,-42.783495 -88.2546,-55.83287977 h -0.02 C 1171.2425,-14.079317 1134.5624,-20.838739 1095.086,-20.838739 Z m 543.03325,0 v 6.61045 521.696739 h 119.9237 V 310.27363 H 1659.11 l 100.8043,197.19482 h 134.304 L 1778.3015,291.37791 c 28.3193,-12.66951 51.5137,-31.08165 69.0131,-55.20234 18.9587,-26.13232 28.4758,-56.63137 28.4758,-90.71572 0,-32.44432 -7.9135,-61.521391 -23.7976,-86.647748 C 1836.6273,33.731764 1814.724,14.181717 1786.7832,0.45708089 1759.263,-13.792171 1727.4962,-20.838739 1691.8368,-20.838739 Z m -1480.496801,5.145981 c 37.4704627,2.36e-4 72.116512,6.7127915 104.140017,20.0957692 l 0.06102,0.02034 0.06102,0.02034 C 89.919555,17.37684 118.05225,35.737478 141.94048,59.625696 l 0.0407,0.04068 0.0407,0.06102 c 24.38409,23.427863 43.22484,50.828284 56.62613,82.417064 l 0.0203,0.0203 v 0.0203 c 13.36477,31.0253 20.05509,64.66033 20.05509,101.12972 0,36.46039 -6.68285,70.35308 -20.05509,101.8823 -13.40158,31.10742 -32.26281,58.55293 -56.68715,82.49842 -2.94461,2.88572 -6.07556,5.56529 -9.15293,8.29865 L 121.0718,416.40695 84.62279,355.69251 c 10.362243,-13.00892 18.91543,-27.53738 25.44515,-43.66965 8.66805,-21.41532 12.99716,-44.38072 12.99716,-68.70801 0,-24.79196 -4.32811,-47.76139 -13.0175,-68.72834 C 101.41456,153.26776 89.406035,134.83704 74.066409,119.48587 58.776619,103.69616 40.86831,91.416121 20.511592,82.752102 -6.9402897e-4,73.53011 -22.560703,68.941346 -46.915001,68.941346 c -23.881541,0 -46.181097,4.597438 -66.674019,13.810756 -20.35704,8.664037 -38.26482,20.943858 -53.55482,36.733768 -15.34013,15.35157 -27.36851,33.78117 -36.00153,55.10064 -8.68162,20.94871 -12.99716,43.67929 -12.99716,67.99611 0,24.80193 4.32226,48.00799 12.99716,69.44024 8.63464,21.33272 20.64046,40.00175 35.96085,55.83288 l 0.0407,0.0407 0.0407,0.0407 c 15.28812,15.28799 33.14142,27.53247 53.45312,36.67274 l 0.0814,0.0407 0.061,0.0203 c 16.244829,6.90407 33.657579,10.94628 52.049669,12.36663 h 0.02034 l 43.934069,73.20311 0.02034,0.0203 0.101699,0.14238 v 0.0203 c 0.363822,0.5319 0.877467,0.92899 1.261071,1.44412 2.125457,2.91066 4.409305,5.66542 6.9969071,8.09526 -12.2726911,1.54108 -24.8559081,2.37977 -37.7914361,2.37977 -37.480763,0 -72.132419,-6.48463 -104.160359,-19.38388 -32.11754,-13.4264 -60.30578,-31.82231 -84.71546,-55.26336 -23.92811,-23.93912 -42.81244,-51.39467 -56.70749,-82.51876 -13.36515,-31.52211 -20.05509,-65.41123 -20.05509,-101.86196 0,-36.46116 6.69634,-70.0899 20.05509,-101.10938 l 0.0203,-0.0203 c 13.90327,-31.62734 32.77484,-59.084744 56.68715,-82.518754 24.40897,-23.9304 52.56103,-42.309883 84.65444,-55.2430249 l 0.0407,-0.02034 h 0.0407 c 32.02317,-13.3830407 66.669456,-20.0955331 104.140019,-20.0957691 z m 598.235581,0 c 37.47323,0 72.11757,6.6929068 104.14002,20.0754294 l 0.0407,0.02034 0.061,0.02034 c 32.57147,12.9327846 60.70505,31.3139796 84.59342,55.2023446 l 0.0407,0.04068 0.061,0.04068 c 24.38443,23.428183 43.22514,50.849204 56.62613,82.437404 v 0.0203 0.0203 c 13.36472,31.02517 20.07543,64.66074 20.07543,101.12972 0,36.46907 -6.69657,70.36676 -20.07543,101.90264 -13.40105,31.09787 -32.27014,58.5601 -56.68715,82.49842 -23.89752,23.41921 -52.05865,41.80839 -84.67478,55.24302 -32.03788,12.90835 -66.70834,19.38388 -104.20104,19.38388 -37.49045,0 -72.16562,-6.47741 -104.20104,-19.38388 -32.10728,-13.42592 -60.29359,-31.80986 -84.69512,-55.24302 -23.93236,-23.94386 -42.81165,-51.44623 -56.70749,-82.57978 -13.35856,-31.5155 -20.05509,-65.37992 -20.05509,-101.82128 0,-36.46075 6.69639,-70.09004 20.05509,-101.10938 l 0.0203,-0.0203 C 319.64026,110.55844 338.51175,83.100708 362.42442,59.666376 386.83294,35.73588 415.00675,17.35612 447.0992,4.4233511 l 0.0203,-0.02034 0.0407,-0.02034 C 479.1817,-8.9994767 513.84736,-15.692758 551.32058,-15.692758 Z m 352.44887,8.0749196 H 1095.086 c 37.9993,-1e-7 72.9226,6.4962225 104.9537,19.4042144 h 0.041 l 0.041,0.02034 c 32.1047,12.458517 60.0298,30.129872 83.9222,53.06666 23.9115,22.955 42.4938,49.652654 55.8939,80.281374 l 0.02,0.0407 0.02,0.0407 c 13.8313,30.52437 20.767,63.37666 20.767,98.81098 0,35.96775 -6.6953,68.85812 -20.0348,98.87199 -13.3827,30.11149 -32.219,56.55746 -56.6261,79.52881 -23.8962,22.46165 -51.8296,40.14937 -83.9629,53.10734 -32.0456,12.43321 -67.0144,18.69232 -105.035,18.69232 H 903.76945 Z m 543.03325,0.02034 h 245.0341 c 33.9595,0 63.5082,6.66165991 88.9462,19.8516904 l 0.061,0.04068 0.061,0.02034 c 25.9863,12.756874 45.7604,30.489976 59.8195,53.453118 l 0.02,0.04068 0.041,0.04068 c 14.5114,22.937295 21.784,49.2831 21.784,79.61016 0,31.64906 -8.6322,59.04234 -25.974,82.9459 -17.4208,24.01239 -40.5786,41.80558 -69.9691,53.65651 l -6.8342,2.76622 112.3167,209.41907 H 1768.0095 L 1667.2053,297.05273 h -126.941 v 197.19482 h -93.4616 z M 551.32058,68.941346 c -23.88138,0 -46.20156,4.59748 -66.69436,13.810756 -20.35693,8.663992 -38.26488,20.943908 -53.55482,36.733768 -15.34,15.35147 -27.34814,33.78128 -35.98119,55.10064 -8.68162,20.94862 -12.99716,43.6794 -12.99716,67.99611 0,24.80177 4.30192,48.00808 12.97682,69.44024 8.63468,21.33261 20.64059,40.0018 35.96085,55.83288 l 0.0407,0.0407 0.0407,0.0407 c 15.28806,15.28789 33.16188,27.53252 53.47346,36.67274 l 0.061,0.0407 0.061,0.0203 c 20.48015,8.70401 42.75987,13.03784 66.613,13.03784 24.32707,0 46.84681,-4.32607 67.34523,-13.03784 l 0.061,-0.0203 0.061,-0.0407 c 20.31158,-9.14022 38.18547,-21.38485 53.47346,-36.67274 l 0.0407,-0.0407 0.0203,-0.0407 c 15.32026,-15.83108 27.32623,-34.50027 35.96085,-55.83288 8.66804,-21.41523 12.99716,-44.38083 12.99716,-68.70801 0,-24.78126 -4.31519,-47.74834 -12.99716,-68.708 C 699.6496,153.27983 687.64627,134.84169 672.30193,119.48587 657.01227,103.6964 639.08343,91.416075 618.72683,82.752102 598.21467,73.530155 575.67486,68.941346 551.32058,68.941346 Z m 988.94372,2.196703 v 6.63079 144.941751 h 142.0128 c 25.1849,0 46.1716,-6.82145 61.7721,-20.78732 16.0195,-13.90515 24.3061,-32.84151 24.3061,-54.99895 0,-22.15743 -8.2866,-41.09372 -24.3061,-54.998947 -15.6004,-13.965831 -36.5871,-20.787324 -61.7721,-20.787324 z m -543.03325,2.949278 v 6.61045 331.864943 h 96.39055 c 23.8065,0 46.0193,-4.08437 66.4706,-12.26493 h 0.041 l 0.041,-0.0203 c 20.8426,-8.64203 39.0145,-20.65606 54.348,-35.98119 15.8122,-15.31429 27.8665,-33.28761 36.0422,-53.69719 8.6877,-20.4643 13.0175,-42.72098 13.0175,-66.55198 0,-23.84824 -4.3172,-46.09573 -13.0175,-66.57232 v -0.0203 c -8.6463,-20.83418 -20.6745,-39.00082 -36.0015,-54.32773 -15.3269,-15.32693 -33.4934,-27.355271 -54.3277,-36.001531 h -0.02 c -20.4764,-8.700438 -42.7443,-13.037842 -66.5926,-13.037842 z M -46.915001,82.162246 c 22.719451,0 43.3175586,4.248185 62.036534,12.671725 l 0.08136,0.02034 0.06102,0.02034 c 18.837754,8.006099 35.209135,19.260049 49.324129,33.845509 l 0.04068,0.0407 0.04068,0.0407 c 14.06674,14.06683 25.096427,30.9118 33.133611,50.76825 l 0.02034,0.0407 v 0.0203 c 7.982207,19.25138 12.000507,40.41226 12.000507,63.68406 0,22.76539 -4.01036,43.95433 -12.020847,63.74508 -5.410387,13.36687 -12.558358,25.17551 -20.705964,36.12357 L 38.756435,279.31638 38.654736,279.15366 C 28.580471,264.32741 12.16867,255.02311 -5.7268104,253.99327 H -5.9098691 -121.76564 c -8.56386,0 -16.29942,3.09846 -20.07543,9.68177 -3.77599,6.58331 -2.58325,14.89225 1.83059,22.51621 l 0.0203,0.0407 40.191537,66.9181 29.533458,49.20209 c -13.294084,-1.85005 -26.099692,-4.78626 -38.015175,-9.84449 -18.88507,-8.5082 -35.32778,-19.77697 -49.44617,-33.88618 -14.09359,-14.57414 -25.11754,-31.70673 -33.15395,-51.56152 -8.00364,-19.77383 -12.04119,-41.20538 -12.04119,-64.47731 0,-22.76528 4.03135,-43.68287 12.02085,-62.95183 v -0.0203 l 0.0203,-0.0407 c 8.03708,-19.85643 19.06679,-36.70143 33.13361,-50.76825 l 0.0203,-0.0407 0.0407,-0.0407 c 14.11501,-14.58546 30.50672,-25.83941 49.34447,-33.845509 l 0.061,-0.02034 0.061,-0.02034 c 18.7378,-8.432009 39.092834,-12.671725 61.304299,-12.671725 z m 598.235581,0 c 22.71943,0 43.31768,4.248226 62.03653,12.671725 l 0.061,0.02034 0.061,0.02034 c 18.83763,8.006049 35.22953,19.260099 49.34447,33.845509 l 0.0407,0.0407 0.0407,0.0407 c 14.06677,14.06672 25.09653,30.91191 33.13361,50.76825 v 0.0407 l 0.0203,0.0203 c 7.98219,19.25127 12.00051,40.41241 12.00051,63.68406 0,22.76529 -4.01038,43.95444 -12.02085,63.74508 -8.03641,19.8547 -19.08075,36.98743 -33.17429,51.56152 -14.11692,14.1077 -30.54325,25.37833 -49.42583,33.88618 -18.73199,7.95261 -39.37272,11.95983 -62.11789,11.95983 -22.23775,0 -42.63638,-4 -61.38566,-11.95983 -18.88325,-8.50794 -35.30851,-19.77808 -49.42583,-33.88618 -14.09347,-14.57409 -25.13788,-31.70682 -33.17429,-51.56152 -8.00362,-19.77371 -12.02085,-41.20547 -12.02085,-64.47731 0,-22.76519 4.01103,-43.68299 12.00051,-62.95183 l 0.0203,-0.0203 v -0.0407 c 8.03707,-19.85634 19.06691,-36.70153 33.13361,-50.76825 l 0.0407,-0.0407 0.0407,-0.0407 c 14.11494,-14.58541 30.50684,-25.83946 49.34447,-33.845509 l 0.061,-0.02034 0.061,-0.02034 c 18.73767,-8.431965 39.09301,-12.671725 61.3043,-12.671725 z M 1553.5055,84.37929 h 128.7716 c 22.8669,0 40.1381,5.913066 52.9853,17.43125 l 0.041,0.0407 0.041,0.0407 c 13.3841,11.59974 19.7906,26.00426 19.7906,45.03242 0,19.02817 -6.4065,33.4328 -19.7906,45.03242 l -0.041,0.0407 -0.041,0.0407 c -12.8471,11.51814 -30.1183,17.45159 -52.9853,17.45159 h -128.7716 z m -543.0332,2.928938 h 83.1493 c 22.2582,0 42.6627,4.025902 61.4263,12.000509 h 0.02 l 0.041,0.02034 c 19.3682,8.030653 36.0043,19.040833 50.0971,33.133613 14.0928,14.09275 25.1232,30.74925 33.1539,50.11738 v 0.0203 l 0.02,0.0203 c 7.9745,18.7637 11.9801,39.16817 11.9801,61.42634 0,22.25817 -4.0056,42.68309 -11.9801,61.44668 l -0.041,0.061 -0.02,0.061 c -7.5135,18.7837 -18.4721,35.11181 -33.032,49.20209 l -0.041,0.0407 -0.041,0.0407 c -14.0841,14.08407 -30.7239,25.10425 -50.0767,33.13362 -18.7808,7.50577 -39.2193,11.28861 -61.5077,11.28861 h -83.1493 z M -121.76564,267.21417 H -6.3776856 c 13.7281824,0.82181 26.2954356,7.94332 34.0489036,19.30252 l 40.842413,68.05713 29.187681,48.61223 h -0.02034 l 31.933558,53.12768 20.23815,33.68279 c 2.94428,5.08761 2.57834,7.92071 1.78991,9.29531 -0.78865,1.37499 -3.01939,3.05098 -8.60376,3.05098 H 27.671218 c -5.977993,-0.35546 -11.64683,-2.10418 -16.882073,-4.67817 -6.8738217,-3.36271 -12.851341,-8.33249 -17.1871704,-14.64469 L -53.60681,404.3861 -76.428119,366.37093 h 0.02034 l -52.171711,-86.81047 c -2.94426,-5.08762 -2.57831,-7.92074 -1.7899,-9.29531 0.78864,-1.37496 3.01936,-3.05098 8.60375,-3.05098 z" />
      <g
         id="g1333">
        <path
           id="path21009"
           style="color:#000000;fill:#ffffff;-inkscape-stroke:none"
           d="m -1057.0528,-23.686318 -0.5289,0.08136 c -0.1266,0.01846 -0.2396,0.02132 -0.3661,0.04068 h -8.1563 c -0.6321,0 -0.8191,0.0245 -0.5695,0.02034 l -29.2893,0.04068 c -0.3159,-0.01902 -0.7626,-0.06102 -1.4849,-0.06102 h -2.339 v -0.06102 h -11.0649 l -3.4578,0.06102 h -98.7093 l -0.3457,0.04068 c -0.4861,0.05147 -0.9596,0.119207 -1.4442,0.183059 -4.2439,0.254194 -8.2471,1.575748 -12.3463,2.481461 -12.2077,3.868217 -22.8276,11.7116068 -30.1029,22.3738319 l -0.1221,0.1627188 -132.3514,220.4635973 -0.081,0.18306 c -8.2886,15.78051 -8.2886,34.64198 0,50.42248 l 0.081,0.16272 38.0559,63.35862 8.9902,14.94979 c 1.4428,3.50067 1.1207,5.52909 0.4475,6.65113 -0.6812,1.13546 -2.2623,2.43788 -6.4477,2.76622 l -91.387,-0.32544 c -13.5179,-0.11391 -25.7272,-6.45901 -33.2963,-17.53294 l -45.785,-76.23375 c -6.1986,-11.90184 -6.1877,-26.06324 0.041,-37.95416 l -11.5327,-6.48841 -84.0036,139.10422 -0.1017,0.2034 c -7.6107,14.74326 -8.0573,32.16141 -1.2,47.2698 l 0.1627,0.34578 50.6665,84.36968 0.1017,0.16272 c 10.0391,14.77435 26.4063,24.0528 44.2392,25.07903 h 0.1831 115.4083 c 0.7743,0 1.496,-0.0343 2.217,-0.0814 l 189.3436,0.0814 c 0.079,0.009 0.1647,0.032 0.2441,0.0407 l 0.3458,0.0407 h 115.5913 c 1.317,0 2.5423,-0.12418 3.7629,-0.26442 l 23.7163,-0.0203 c 1.253,0.14946 2.5084,0.28476 3.8645,0.28476 h 42.2662 c -0.01,-5e-5 0.06,0 0.041,0 h 2.034 71.06744 l 0.18306,-0.0203 c 17.83292,-1.02623 34.20013,-10.30459 44.23916,-25.07903 l 0.1017,-0.14238 50.66656,-84.39002 0.16272,-0.34578 c 0.0579,-0.12833 0.10579,-0.25769 0.16272,-0.38646 l 6.95623,-11.59371 34.354,-57.17531 40.04916,-66.67402 0.0814,-0.16272 c 8.28865,-15.78054 8.28865,-34.66227 0,-50.44282 l -0.0814,-0.16272 -132.35139,-220.4635973 -0.1017,-0.1423789 c -9.27738,-13.6534178 -23.96508,-22.5212628 -40.21187,-24.6112148 v -0.610196 l -102.69589,0.12204 z m -156.8813,13.220901 v 0.345777 l 0.4475,-0.06102 c 0.4041,-0.05695 0.8149,-0.09663 1.2204,-0.142379 h 98.0787 l 6.997,-0.122039 c 0.078,0.01235 0.1456,0.02788 0.2237,0.04068 l 0.5288,0.08136 h 8.9902 c 0.1291,0 0.4412,0.0119 1.0577,0.04068 l 0.1627,0.02034 29.7165,-0.04068 h 0.061 c 0.5694,-0.0095 0.6537,-0.02034 0.3457,-0.02034 h 9.1937 l 0.5288,-0.08136 c 0.072,-0.01173 0.1521,-0.02934 0.2237,-0.04068 l 6.8749,0.122039 89.55635,-0.122039 v 0.122039 h 8.56307 c 13.66741,0.8182771 26.16818,7.9111975 33.88619,19.2211554 L -785.39383,228.54813 c 6.21216,11.8963 6.19378,26.05853 -0.0203,37.95415 l -41.67634,69.4199 -32.4624,54.04297 -7.4037,12.30561 -0.18306,0.4068 c -0.0426,0.0988 -0.0787,0.18632 -0.12204,0.28475 l -50.01568,83.31202 c -7.7186,11.30339 -20.22334,18.38278 -33.88619,19.20081 h -70.59966 -1.9933 -42.3476 c -1.0633,0 -2.0183,-0.0727 -2.8882,-0.2034 l -0.4882,-0.0814 -24.7332,0.0407 -0.4475,0.061 c -0.8405,0.11991 -1.7669,0.18306 -2.7866,0.18306 h -114.8184 c -0.056,-0.007 -0.1271,-0.0135 -0.1831,-0.0203 l -0.3864,-0.0407 -190.4217,-0.1017 -0.2644,0.0203 c -0.5485,0.0433 -1.091,0.0814 -1.6678,0.0814 h -114.9202 c -13.6698,-0.81295 -26.1845,-7.91293 -33.9065,-19.22115 l -49.975,-83.21032 c -5.0619,-11.33887 -4.7093,-24.33612 0.956,-35.39133 l 66.8774,-110.79115 c 0.9465,5.49754 2.6545,10.89956 5.3087,15.96678 l 0.1017,0.16272 46.2935,77.06768 0.1017,0.16272 c 10.0054,14.70682 26.4902,23.24177 44.1781,23.39082 h 0.02 l 92.0378,0.32544 0.2644,-0.0203 c 7.2198,-0.51804 13.6049,-3.60931 16.9431,-9.17327 3.3382,-5.56394 3.0462,-12.52345 0.3254,-18.87538 l -0.183,-0.42713 -3.7019,-6.16298 -43.6696,-72.71495 c -6.2163,-11.89978 -6.2168,-26.05528 0,-37.95415 L -1246.2948,8.9184572 c 6.3877,-9.32971916 16.1002,-15.85617 27.1537,-18.2448427 z m 132.148,129.341087 -62.9925,1.09835 -0.8746,0.24408 c -12.4445,3.70108 -23.148,11.75472 -30.164,22.67893 l -0.061,0.0814 -35.3303,58.82284 -11.9599,20.80766 -2.8069,6.50875 -0.061,0.18306 c -5.1532,14.2742 -4.0968,30.07565 2.929,43.52727 l 0.1017,0.16272 55.8532,92.97344 1.078,0.79326 c 4.8643,3.51839 10.2835,6.20848 16.0278,7.95288 l 0.895,0.26441 65.4129,1.13904 65.3926,-1.13904 0.895,-0.26441 c 10.2918,-3.10384 19.417,-9.20437 26.23836,-17.51261 l 0.3051,-0.36612 50.36146,-83.84085 0.1017,-0.16272 c 6.94287,-13.25779 8.08223,-28.79979 3.17302,-42.93741 l -0.0814,-0.24408 -3.03064,-7.03759 -11.95983,-20.80766 -36.40833,-60.63309 -0.12204,-0.16272 c -0.40933,-0.59178 -0.84885,-1.1742 -1.28141,-1.74922 l -0.18305,-0.26442 -0.24408,-0.24408 c -0.30489,-0.32955 -0.27864,-0.35967 -0.1017,-0.0814 l -0.44748,-0.73223 -0.32544,-0.38646 c -6.84456,-8.23906 -15.97204,-14.27465 -26.23834,-17.32955 l -0.8746,-0.24408 -63.0942,-1.09835 z m 0.1221,13.2209 60.8568,1.05767 c 7.4166,2.34936 14.032,6.72751 19.0381,12.69207 0.625,0.94136 1.2196,1.58467 1.4848,1.87126 l -0.4271,-0.50849 c 0.2964,0.39413 0.5721,0.79549 0.85423,1.20005 l 36.10323,60.10425 11.51235,20.03475 2.5018,5.77651 c 3.66769,10.64541 2.80614,22.3152 -2.4001,32.29968 l -49.52751,82.41706 c -4.978,5.96526 -11.5445,10.35845 -18.9364,12.73274 l -63.1349,1.09835 -63.1349,-1.09835 c -3.7252,-1.20339 -7.2214,-2.94151 -10.4547,-5.14598 l -54.0633,-90.00382 c -5.2728,-10.13724 -6.0757,-21.99225 -2.217,-32.74715 l 2.2984,-5.32904 11.5123,-20.03475 35.1269,-58.47706 c 5.181,-8.05855 13.0283,-14.00084 22.1501,-16.88208 z"
           sodipodi:nodetypes="cscsccscccccsccsccsscccscccccccssccsscsccscsccsccccssccsccccssccsccccccscccscssccsccscccccccccccscccccssccsscsccsscccccsccssccssscccccscccssccccssccsscccssccssccccsscsccssccccccccccccccccccccccccc" />
        <path
           style="color:#000000;fill:#ffffff;-inkscape-stroke:none"
           d="m -758.83398,-23.558594 c -8.53593,0 -16.24079,3.098418 -20.00782,9.666016 -3.76702,6.5675975 -2.58876,14.84840203 1.81055,22.4472655 l 0.0273,0.046875 82.32618,137.0195275 0.0312,0.0508 c 1.36892,2.19005 2.18034,2.99169 1.48437,1.77344 l 0.0352,0.0645 132.13281,219.9375 c 5.70791,11.13272 6.02992,24.24659 0.85742,35.64257 l 11.69336,6.14063 81.89063,-136.32422 0.0879,-0.16797 c 8.2886,-15.78052 8.2886,-34.64721 0,-50.42773 l -0.0879,-0.16797 L -598.9082,1.6777344 -599.01367,1.5234375 c -10.03894,-14.7743335 -26.39184,-24.0459045 -44.22461,-25.0722655 l -0.19141,-0.0098 z m 0,13.228516 h 114.93554 c 13.66274,0.8181322 26.16233,7.9056775 33.88086,19.2089843 L -478.14062,228.54492 c 6.215,11.89743 6.21499,26.0596 0,37.95703 l -66.05469,109.9668 c -0.94949,-5.23187 -2.59413,-10.3624 -5.08789,-15.19336 l -0.0977,-0.18945 -0.10937,-0.1836 -132.18555,-220.01953 c -1.45265,-2.54276 -2.1633,-2.8859 -1.75586,-2.22851 L -765.58789,1.9140625 c -2.92309,-5.0558102 -2.55818,-7.8666736 -1.7793,-9.2246094 0.77965,-1.3592786 2.97677,-3.0195311 8.53321,-3.0195311 z"
           id="path21011" />
        <path
           style="color:#000000;fill:#ffffff;-inkscape-stroke:none"
           d="m -633.38672,222.15625 -11.52148,6.48828 c 6.22933,11.89269 6.23843,26.05802 0.0371,37.96094 l -81.77149,136.12695 -0.11523,0.22852 c -1.02037,2.04015 -1.2607,3.04192 -1,2.58203 l -50.25,83.71875 -0.14258,0.30469 c -3.21991,6.85716 -3.65075,14.47549 0.17578,20.37304 3.82653,5.89756 11.02643,8.76367 19.14063,8.76367 h 115.40429 l 0.19141,-0.0117 c 17.83277,-1.02637 34.18567,-10.29793 44.22461,-25.07227 l 0.10547,-0.15234 50.66015,-84.37305 0.15821,-0.3457 c 6.85738,-15.1083 6.41713,-32.53795 -1.19336,-47.28125 l -0.10157,-0.19727 z m 5.50391,34.70703 66.89648,110.78906 c 5.66038,11.05175 6.00148,24.05189 0.94336,35.38672 l -49.97461,83.22656 c -7.71853,11.30331 -20.21812,18.3889 -33.88086,19.20704 h -114.93554 c -5.21639,0 -7.25141,-1.5144 -8.04297,-2.73438 -0.77897,-1.20057 -1.18337,-3.40517 0.63476,-7.375 l 49.98633,-83.27734 0.0547,-0.0977 c 1.17668,-2.11814 1.28383,-3.04826 1.22656,-2.99023 l 81.69531,-136 0.0899,-0.17188 c 2.65435,-5.06753 4.3602,-10.46501 5.30664,-15.96289 z"
           id="path21013" />
        <path
           style="color:#000000;fill:#ffffff;-inkscape-stroke:none"
           d="m -1520.5039,-23.623047 -0.1895,0.01172 c -17.8327,1.026368 -34.1876,10.297938 -44.2265,25.0722655 l -0.1035,0.1523437 -132.3575,220.4667978 -0.086,0.16601 c -8.2886,15.78049 -8.2886,34.64726 0,50.42774 l 0.088,0.16797 81.8887,136.32617 11.6953,-6.14063 c -5.1713,-11.39332 -4.8525,-24.50568 0.8515,-35.63672 l 132.1368,-219.94531 0.037,-0.0625 c -0.6959,1.21778 0.1156,0.41425 1.4843,-1.77539 l 0.029,-0.0488 82.3282,-137.0195265 0.025,-0.046875 c 4.3993,-7.59886216 5.5775,-15.8796571 1.8105,-22.4472655 -3.767,-6.567609 -11.4719,-9.667969 -20.0078,-9.667969 z m 0.4687,13.230469 h 114.9356 c 5.5564,0 7.7535,1.6602629 8.5332,3.0195311 0.7794,1.3588735 1.1466,4.1699393 -1.7832,9.2324219 -9e-4,0.00147 0,0.00244 0,0.00391 L -1480.502,138.5918 c 0.4073,-0.65706 -0.3013,-0.31358 -1.7539,2.22851 l 0.072,-0.125 -132.3672,220.32617 -0.098,0.18946 c -2.4935,4.83026 -4.1383,9.96228 -5.0879,15.19336 l -66.0567,-109.96485 c -6.2162,-11.89976 -6.2167,-26.06598 0,-37.96484 L -1553.9238,8.8242188 c 7.7179,-11.3099176 20.2213,-18.398385 33.8886,-19.2167968 z"
           id="path21015" />
      </g>
    </g>
  </g>
</svg>
