<?xml version="1.0" encoding="UTF-8" standalone="no"?>
<!-- Created with Inkscape (http://www.inkscape.org/) -->

<svg
   width="90.826942mm"
   height="13.497884mm"
   viewBox="0 0 90.826942 13.497884"
   version="1.1"
   id="svg259"
   inkscape:version="1.2.2 (732a01da63, 2022-12-09)"
   sodipodi:docname="logo+wordmark-qodr_color_2023-05.svg"
   xmlns:inkscape="http://www.inkscape.org/namespaces/inkscape"
   xmlns:sodipodi="http://sodipodi.sourceforge.net/DTD/sodipodi-0.dtd"
   xmlns="http://www.w3.org/2000/svg"
   xmlns:svg="http://www.w3.org/2000/svg">
  <sodipodi:namedview
     id="namedview261"
     pagecolor="#ffffff"
     bordercolor="#999999"
     borderopacity="1"
     inkscape:showpageshadow="0"
     inkscape:pageopacity="0"
     inkscape:pagecheckerboard="0"
     inkscape:deskcolor="#ffffff"
     inkscape:document-units="mm"
     showgrid="false"
     inkscape:zoom="1.9099422"
     inkscape:cx="224.35233"
     inkscape:cy="70.682766"
     inkscape:window-width="1920"
     inkscape:window-height="1013"
     inkscape:window-x="-9"
     inkscape:window-y="-9"
     inkscape:window-maximized="1"
     inkscape:current-layer="layer1"
     showborder="false" />
  <defs
     id="defs256" />
  <g
     inkscape:label="Layer 1"
     inkscape:groupmode="layer"
     id="layer1"
     transform="translate(51.508769,-174.44764)">
    <g
       id="g254"
       transform="matrix(0.0254065,0,0,0.0254065,-8.5044584,139.73685)">
      <path
         id="path216"
         style="font-weight:bold;font-size:551.291px;font-family:'Red Hat Display';-inkscape-font-specification:'Red Hat Display Bold';fill:#212322;stroke-width:61.3189"
         d="m -47.769274,1366.2168 c -38.262873,0 -73.836006,6.8689 -106.702836,20.6043 -32.86683,13.2448 -61.81277,32.1393 -86.83081,56.6668 -24.52748,24.0369 -43.90534,52.2374 -58.13128,84.6137 -13.73539,31.8857 -20.60427,66.4718 -20.60427,103.7536 0,37.2818 6.86888,72.1095 20.60427,104.4858 14.22594,31.8857 33.6038,60.0862 58.13128,84.6137 25.01804,24.037 53.96398,42.9315 86.83081,56.6669 32.86683,13.2448 68.439963,19.872 106.702836,19.872 38.2628731,0 73.815669,-6.6272 106.682497,-19.872 33.35737,-13.7354 62.303327,-32.6299 86.830807,-56.6669 25.01804,-24.5275 44.39589,-52.728 58.13128,-84.6137 13.73539,-32.3763 20.60427,-67.204 20.60427,-104.4858 0,-37.2818 -6.86888,-71.8679 -20.60427,-103.7536 -13.73539,-32.3763 -33.11324,-60.5768 -58.13128,-84.6137 -24.52748,-24.5275 -53.473437,-43.422 -86.830807,-56.6668 -32.866828,-13.7354 -68.4196239,-20.6043 -106.682497,-20.6043 z m 598.215244,0 c -38.26288,0 -73.83601,6.8689 -106.70284,20.6043 -32.86682,13.2448 -61.79243,32.1393 -86.81047,56.6668 -24.52748,24.0369 -43.90534,52.2374 -58.13128,84.6137 -13.73539,31.8857 -20.60427,66.4718 -20.60427,103.7536 0,37.2818 6.86888,72.1095 20.60427,104.4858 14.22594,31.8857 33.6038,60.0862 58.13128,84.6137 25.01804,24.037 53.94365,42.9315 86.81047,56.6669 32.86683,13.2448 68.43996,19.872 106.70284,19.872 38.26287,0 73.83601,-6.6272 106.70283,-19.872 33.35738,-13.7354 62.28299,-32.6299 86.81047,-56.6669 25.01804,-24.5275 44.3959,-52.728 58.13128,-84.6137 13.7354,-32.3763 20.60427,-67.204 20.60427,-104.4858 0,-37.2818 -6.86887,-71.8679 -20.60427,-103.7536 -13.73538,-32.3763 -33.11324,-60.5768 -58.13128,-84.6137 -24.52748,-24.5275 -53.45309,-43.422 -86.81047,-56.6668 -32.86682,-13.7354 -68.43996,-20.6043 -106.70283,-20.6043 z m 345.83841,8.0952 v 515.0863 h 197.92702 c 38.7535,0 74.5683,-6.3855 107.4351,-19.1398 32.8668,-13.2448 61.5711,-31.3939 86.0986,-54.4497 25.018,-23.5464 44.3959,-50.7802 58.1313,-81.6849 13.7353,-30.9046 20.6042,-64.7452 20.6042,-101.5365 0,-36.3006 -7.1106,-70.1413 -21.3365,-101.5365 -13.7354,-31.3952 -32.8715,-58.8707 -57.399,-82.4171 -24.5275,-23.5463 -53.2318,-41.6955 -86.0986,-54.4497 -32.8668,-13.2449 -68.6816,-19.8721 -107.4351,-19.8721 z m 543.03322,0 v 515.0863 h 106.7029 v -197.2151 h 116.2625 l 100.8043,197.2151 h 119.2118 l -114.0658,-212.6531 c 30.414,-12.2637 54.7069,-30.9165 72.8573,-55.9345 18.1503,-25.0181 27.2147,-53.9641 27.2147,-86.8309 0,-31.3952 -7.5939,-59.1123 -22.8009,-83.1492 -14.7165,-24.037 -35.5648,-42.6694 -62.5451,-55.9143 -26.4896,-13.7354 -57.1477,-20.6043 -91.9768,-20.6043 z m -1487.086874,89.7801 c 23.546384,0 45.1197478,4.4114 64.741733,13.2413 19.621986,8.3393 36.784004,20.1029 51.500492,35.3099 14.71649,14.7166 26.258738,32.3823 34.598079,52.9853 8.33935,20.1126 12.50901,42.1897 12.50901,66.2266 0,23.5464 -4.16966,45.6234 -12.50901,66.2265 -8.339341,20.6031 -19.881589,38.5105 -34.598079,53.7176 -14.716488,14.7165 -31.878506,26.4801 -51.500492,35.3099 -19.6219852,8.3394 -41.195349,12.509 -64.741733,12.509 -23.055836,0 -44.407853,-4.1696 -64.029836,-12.509 -19.62199,-8.8298 -36.78401,-20.5934 -51.5005,-35.3099 -14.71649,-15.2071 -26.23839,-33.1145 -34.57774,-53.7176 -8.33934,-20.6031 -12.509,-42.9218 -12.509,-66.9587 0,-23.5464 4.16966,-45.3818 12.509,-65.4944 8.33935,-20.603 19.86125,-38.2687 34.57774,-52.9853 14.71649,-15.207 31.87851,-26.9706 51.5005,-35.3099 19.621983,-8.8299 40.974,-13.2413 64.029836,-13.2413 z m 598.215244,0 c 23.54638,0 45.14008,4.4114 64.76207,13.2413 19.62199,8.3393 36.78401,20.1029 51.50049,35.3099 14.71649,14.7166 26.2384,32.3823 34.57774,52.9853 8.33935,20.1126 12.50901,42.1897 12.50901,66.2266 0,23.5464 -4.16966,45.6234 -12.50901,66.2265 -8.33934,20.6031 -19.86125,38.5105 -34.57774,53.7176 -14.71648,14.7165 -31.8785,26.4801 -51.50049,35.3099 -19.62199,8.3394 -41.21569,12.509 -64.76207,12.509 -23.05584,0 -44.38752,-4.1696 -64.0095,-12.509 -19.62198,-8.8298 -36.80434,-20.5934 -51.52083,-35.3099 -14.71649,-15.2071 -26.23839,-33.1145 -34.57774,-53.7176 -8.33934,-20.6031 -12.50901,-42.9218 -12.50901,-66.9587 0,-23.5464 4.16967,-45.3818 12.50901,-65.4944 8.33935,-20.603 19.86125,-38.2687 34.57774,-52.9853 14.71649,-15.207 31.89885,-26.9706 51.52083,-35.3099 19.62198,-8.8299 40.95366,-13.2413 64.0095,-13.2413 z m 995.57453,2.1967 h 135.382 c 24.037,0 43.1731,6.3855 57.399,19.1398 14.7165,12.7544 22.0688,29.433 22.0688,50.0361 0,20.6031 -7.3523,37.2817 -22.0688,50.036 -14.2259,12.7543 -33.362,19.1194 -57.399,19.1194 h -135.382 z m -543.0333,2.9493 h 89.7598 c 23.0558,0 44.4078,4.1696 64.0298,12.509 20.1125,8.3393 37.5162,19.8612 52.2327,34.5778 14.7165,14.7164 26.2384,32.1405 34.5778,52.253 8.3394,19.6221 12.509,40.9537 12.509,64.0095 0,23.0559 -4.1696,44.3875 -12.509,64.0095 -7.8488,19.622 -19.3708,36.8043 -34.5778,51.5209 -14.7165,14.7164 -32.1202,26.2383 -52.2327,34.5777 -19.622,7.8488 -40.974,11.7768 -64.0298,11.7768 h -89.7598 z" />
      <path
         id="path21033"
         style="fill:#00b140;fill-opacity:1;stroke-width:9.55962"
         d="m -122.6416,1649.1366 c -14.1483,0 -19.8839,9.5594 -12.523,22.2738 l 46.1941,76.8833 h -0.013 l 76.195,126.9193 a 51.048309,51.048309 0 0 0 39.2905,22.2739 h 115.671 c 14.1483,0 19.8839,-9.5595 12.523,-22.2739 l -46.1941,-76.8833 h 0.013 l -76.195,-126.9193 a 51.048309,51.048309 0 0 0 -39.2904,-22.2738 z" />
      <g
         id="g21045"
         transform="matrix(1.3294565,0,0,1.3294565,227.5953,1593.3066)">
        <path
           id="path21037"
           style="fill:#212322;fill-opacity:1;stroke-width:7.16221"
           d="m -1000.3307,-170.0214 -5e-4,5e-4 -5.6632,0.097 h -74.0244 a 38.24614,38.24614 0 0 0 -1.3106,0.1617 l -4.6126,0.01 v 0.6935 a 38.24614,38.24614 0 0 0 -23.5138,15.8264 l -99.4115,165.5899 a 35.810992,35.810992 0 0 0 0,33.3044 l 30.7625,51.2093 -6e-4,5e-4 4.8168,8.0181 c 3.2257,7.5306 -0.1139,13.5532 -8.7783,14.1749 l -69.0418,-0.244 c -11.7477,-0.099 -22.5507,-5.7048 -29.1589,-15.4181 l -34.6723,-57.7205 a 35.810992,35.810992 0 0 1 0,-33.2326 l -63.099,104.4964 a 35.810992,35.810992 0 0 0 -0.7881,31.2271 l 37.8882,63.099 a 38.24614,38.24614 0 0 0 29.4369,16.6878 h 86.6624 c 0.5728,0 1.1225,-0.024 1.6547,-0.066 l 142.7283,0.066 v 0 a 38.24614,38.24614 0 0 0 0.4377,0.051 h 86.66237 c 0.9939,0 1.9244,-0.068 2.7957,-0.1923 l 17.8754,-0.019 c 0.9049,0.136 1.8735,0.2109 2.9124,0.2109 h 31.7934 c 0.01,2e-4 0.013,0 0.02,0 h 1.5332 53.3156 a 38.24614,38.24614 0 0 0 29.437,-16.6879 l 37.8876,-63.099 a 35.810992,35.810992 0 0 0 0.2398,-0.5431 l 5.393,-8.9773 25.1292,-41.8325 v -6e-4 l 30.7614,-51.2092 a 35.810992,35.810992 0 0 0 0,-33.3045 l -99.411,-165.5899 a 38.24614,38.24614 0 0 0 -29.437,-16.6878 h -1.6717 v -0.097 l -72.3113,0.095 -5.5496,-0.095 a 35.810992,35.810992 0 0 0 -0.6263,0.097 h -6.5035 c -0.1219,0 -0.2316,0.013 -0.3519,0.015 l -22.2002,0.029 c -0.3427,-0.016 -0.6738,-0.044 -1.0309,-0.044 h -6.3485 a 35.810992,35.810992 0 0 0 -0.62627,-0.097 z m 18.84487,107.2317 46.7015,0.8098 a 35.810992,35.810992 0 0 1 17.3323,11.4401 l 0.1783,0.2961 c 0.1845,0.2953 0.4247,0.5524 0.6547,0.801 a 35.810992,35.810992 0 0 1 0.8341,1.156 l 27.2908,45.4257 8.8212,15.3582 2.1053,4.8721 a 35.810992,35.810992 0 0 1 -2.1053,28.3605 l -37.6153,62.6189 a 35.810992,35.810992 0 0 1 -17.3375,11.5616 l -48.4208,0.8392 -48.42177,-0.8392 a 35.810992,35.810992 0 0 1 -10.5823,-5.2498 l -41.4068,-68.9307 a 35.810992,35.810992 0 0 1 -1.941,-28.7393 l 1.941,-4.4933 8.8212,-15.3582 26.5219,-44.1457 a 35.810992,35.810992 0 0 1 19.9233,-14.9732 z" />
        <path
           d="m -585.4531,116.8504 a 35.810992,35.810992 0 0 1 0.7878,31.2273 L -523.142,45.6583 a 35.810992,35.810992 0 0 0 0,-33.3044 l -99.4114,-165.5898 a 38.24614,38.24614 0 0 0 -29.4367,-16.6879 h -86.66253 c -10.6001,0 -14.8974,7.1621 -9.3825,16.6879 l 61.8814,102.9923 c 0.3581,0.5729 0.9311,1.0027 1.2176,1.5042 z"
           fill="url(#a)"
           id="path21039"
           style="fill:#212322;fill-opacity:1;stroke-width:7.16221" />
        <path
           d="m -738.65263,228.0078 h 86.66253 a 38.24614,38.24614 0 0 0 29.4367,-16.6879 l 37.8881,-63.099 a 35.810992,35.810992 0 0 0 -0.7878,-31.227 L -648.5522,12.4974 a 35.810992,35.810992 0 0 1 0,33.2324 l -61.52333,102.4197 c -0.3581,0.716 -0.5013,1.5038 -0.8594,2.1484 l -37.7448,62.8842 c -3.8676,8.2365 0,14.8257 10.0271,14.8257 z"
           fill="url(#b)"
           id="path21041"
           style="fill:#00b140;fill-opacity:1;stroke-width:7.16221" />
        <path
           d="m -1377.9653,116.8027 a 35.810992,35.810992 0 0 0 -0.7878,31.2273 l -61.5234,-102.4194 a 35.810992,35.810992 0 0 1 0,-33.3043 l 99.4114,-165.5898 a 38.24614,38.24614 0 0 1 29.4367,-16.6879 h 86.6625 c 10.6001,0 14.8974,7.1621 9.3825,16.6879 l -61.8814,102.9923 c -0.3581,0.5729 -0.9311,1.0027 -1.2176,1.5041 z"
           fill="url(#a)"
           id="path21043"
           style="fill:#00b140;fill-opacity:1;stroke-width:7.16221" />
      </g>
    </g>
  </g>
</svg>
